<svg xmlns="http://www.w3.org/2000/svg" version="1.1" xmlns:xlink="http://www.w3.org/1999/xlink" xmlns:svgjs="http://svgjs.dev/svgjs" width="1000" height="176" viewBox="0 0 1000 176"><g transform="matrix(1,0,0,1,-0.6060590460735966,0.5539187826711895)"><svg viewBox="0 0 396 70" data-background-color="#ffffff" preserveAspectRatio="xMidYMid meet" height="176" width="1000" xmlns="http://www.w3.org/2000/svg" xmlns:xlink="http://www.w3.org/1999/xlink"><g id="tight-bounds" transform="matrix(1,0,0,1,0.23999947876933447,-0.2203086067442257)"><svg viewBox="0 0 395.52 70.44061412487206" height="70.44061412487206" width="395.52"><g><svg viewBox="0 0 395.52 70.44061412487206" height="70.44061412487206" width="395.52"><g><svg viewBox="0 0 395.52 70.44061412487206" height="70.44061412487206" width="395.52"><g id="textblocktransform"><svg viewBox="0 0 395.52 70.44061412487206" height="70.44061412487206" width="395.52" id="textblock"><g><svg viewBox="0 0 395.52 70.44061412487206" height="70.44061412487206" width="395.52"><g transform="matrix(1,0,0,1,0,0)"><svg width="395.52" viewBox="1.9500000476837158 -34.20000076293945 195.38999938964844 34.79999923706055" height="70.44061412487206" data-palette-color="#000000"><path d="M22.75-26.05L21.05-31.75Q18.35-32.7 15.5-32.7 12.65-32.7 10.5-31.08 8.35-29.45 8.35-26.25L8.35-26.25Q8.35-23.15 11-21.5L11-21.5Q12.45-20.6 13.38-20.2 14.3-19.8 16.07-19.15 17.85-18.5 18.5-18.23 19.15-17.95 20.43-17.38 21.7-16.8 22.33-16.35 22.95-15.9 23.85-15.1 24.75-14.3 25.2-13.5L25.2-13.5Q26.3-11.45 26.3-9.05L26.3-9.05Q26.3-4.8 22.85-2.1 19.4 0.6 13.9 0.6L13.9 0.6Q9.7 0.6 6.05-0.8L6.05-0.8Q4.25-1.45 3.1-2.6 1.95-3.75 1.95-5.25L1.95-5.25Q1.95-7.7 5.5-8.6L5.5-8.6Q6.05-5.6 7.6-3.75 9.15-1.9 10.83-1.3 12.5-0.7 14.93-0.7 17.35-0.7 19.5-2.27 21.65-3.85 21.65-7.45L21.65-7.45Q21.65-10.2 19.15-11.95L19.15-11.95Q17.15-13.3 14.23-14.5 11.3-15.7 10.3-16.13 9.3-16.55 7.73-17.48 6.15-18.4 5.4-19.3L5.4-19.3Q3.45-21.65 3.45-24.7L3.45-24.7Q3.45-29.4 6.8-31.8 10.15-34.2 16.05-34.2L16.05-34.2Q19.6-34.2 24.3-33.4L24.3-33.4 24.3-26.05 22.75-26.05ZM64.5-16.8Q64.5-9.3 59.95-4.38 55.4 0.55 47.75 0.55 40.1 0.55 35.52-4.38 30.95-9.3 30.95-16.8 30.95-24.3 35.52-29.23 40.1-34.15 47.75-34.15 55.4-34.15 59.95-29.23 64.5-24.3 64.5-16.8ZM47.8-1L47.8-1Q58.4-1 58.4-16.8L58.4-16.8Q58.4-24.4 55.97-28.5 53.55-32.6 47.75-32.6 41.95-32.6 39.5-28.53 37.05-24.45 37.05-16.8L37.05-16.8Q37.05-1 47.8-1ZM95-25.05L95-25.05Q95-22.25 93.8-20.25 92.59-18.25 90.55-17.2L90.55-17.2Q86.7-15.3 81.34-15.3L81.34-15.3Q80.05-15.3 77.84-15.5L77.84-15.5 77.84-1.45 81.7-1.2 81.7 0 68.95 0 68.95-1.2 72.7-1.45 72.7-31.75 68.34-32.3 68.34-33.5 77.7-33.5 83.65-33.65Q95-33.65 95-25.05ZM80.05-16.85L80.05-16.85Q84.59-16.85 87.05-19.05 89.5-21.25 89.5-24.98 89.5-28.7 87.75-30.43 86-32.15 82.15-32.15L82.15-32.15Q80.45-32.15 77.84-31.95L77.84-31.95 77.84-16.95Q78.59-16.85 80.05-16.85ZM134.99-1.2L134.99 0 121.14 0 121.14-1.2 125.49-1.65 125.49-16.5 107.74-16.5 107.74-1.65 112.09-1.2 112.09 0 98.24 0 98.24-1.2 102.59-1.65 102.59-31.75 98.24-32.2 98.24-33.4 112.09-33.4 112.09-32.2 107.74-31.75 107.74-18.3 125.49-18.3 125.49-31.75 121.14-32.2 121.14-33.4 134.99-33.4 134.99-32.2 130.64-31.75 130.64-1.65 134.99-1.2ZM152.74-1.2L152.74 0 138.89 0 138.89-1.2 143.24-1.65 143.24-31.75 138.89-32.2 138.89-33.4 152.74-33.4 152.74-32.2 148.39-31.75 148.39-1.65 152.74-1.2ZM189.64-1.2L189.64 0 176.14 0 176.14-1.05 180.04-1.65 175.64-13.15 164.39-13.15 160.19-2.5 164.64-1.2 164.64 0 154.19 0 154.19-1.2 157.99-2.5 170.29-33.4 172.74-33.4 185.79-1.65 189.64-1.2ZM165.09-15L174.89-15 169.99-27.15 165.09-15ZM197.34-2.38Q197.34-1.15 196.48-0.28 195.63 0.6 194.36 0.6 193.09 0.6 192.23-0.25 191.38-1.1 191.38-2.38 191.38-3.65 192.23-4.53 193.09-5.4 194.34-5.4 195.59-5.4 196.46-4.5 197.34-3.6 197.34-2.38Z" opacity="1" transform="matrix(1,0,0,1,0,0)" fill="#ffffff" class="wordmark-text-0" data-fill-palette-color="primary" id="text-0"></path></svg></g></svg></g></svg></g></svg></g><g></g></svg></g><defs></defs></svg><rect width="395.52" height="70.44061412487206" fill="none" stroke="none" visibility="hidden"></rect></g></svg></g></svg>